<svg xmlns="http://www.w3.org/2000/svg" xmlns:xlink="http://www.w3.org/1999/xlink" width="464.831" height="414.846" viewBox="0 0 464.831 414.846">
  <defs>
    <linearGradient id="linear-gradient" y1="1.306" x2="1" y2="1.306" gradientUnits="objectBoundingBox">
      <stop offset="0.02" stop-color="#52835f"/>
      <stop offset="0.5" stop-color="#006d4f"/>
      <stop offset="1" stop-color="#004a33"/>
    </linearGradient>
    <linearGradient id="linear-gradient-2" x1="0" y1="1.157" x2="1" y2="1.157" xlink:href="#linear-gradient"/>
    <linearGradient id="linear-gradient-3" x1="0" y1="1.22" x2="1" y2="1.22" xlink:href="#linear-gradient"/>
    <linearGradient id="linear-gradient-4" x1="0" y1="7.796" x2="1" y2="7.796" xlink:href="#linear-gradient"/>
    <linearGradient id="linear-gradient-5" x1="0" y1="1.333" x2="1" y2="1.333" xlink:href="#linear-gradient"/>
    <linearGradient id="linear-gradient-6" x1="0" y1="0.5" x2="1" y2="0.5" xlink:href="#linear-gradient"/>
    <linearGradient id="linear-gradient-7" x1="0" y1="0.5" x2="1" y2="0.5" xlink:href="#linear-gradient"/>
    <linearGradient id="linear-gradient-8" x1="0" y1="0.5" x2="1" y2="0.5" xlink:href="#linear-gradient"/>
    <linearGradient id="linear-gradient-9" x1="0" y1="0.5" x2="1" y2="0.5" xlink:href="#linear-gradient"/>
    <linearGradient id="linear-gradient-10" x1="0" y1="0.5" x2="1" y2="0.5" xlink:href="#linear-gradient"/>
    <linearGradient id="linear-gradient-11" x1="0" y1="0.5" x2="1" y2="0.5" xlink:href="#linear-gradient"/>
    <linearGradient id="linear-gradient-12" x1="0" y1="0.5" x2="1" y2="0.5" xlink:href="#linear-gradient"/>
    <linearGradient id="linear-gradient-13" x1="0" y1="0.5" x2="1" y2="0.5" xlink:href="#linear-gradient"/>
  </defs>
  <g id="c.c2-01-01" transform="translate(-285.849 -296.293)">
    <path id="Path_1" data-name="Path 1" d="M386.91,334.22c-18.18,11.39-53.47,36.71-77.47,79.83a191.876,191.876,0,0,0-23.49,98.04c.63,19.17,2.85,64.96,39.37,110.37,20.23,25.14,43.69,41.13,59.69,50.37-16.62-18.5-70.36-83.06-67.19-176.25,2.9-85.03,51.43-143.1,69.09-162.36h-.01Z" fill="url(#linear-gradient)"/>
    <path id="Path_2" data-name="Path 2" d="M553.25,297.78c-18.14-2.17-44.89-3.09-73.65,5.36C381.8,331.9,357.96,440.52,354.63,455.61,331.94,558.88,388.42,683,476.42,705.5c30.52,7.81,74.61,5.89,74.92,3.75.19-1.35-17.01-2.97-34.93-8.03-40.07-11.33-64.75-34.58-78.1-47.15-43.74-41.2-66.89-107.78-59.04-171.99,2.65-21.76,11.05-90.55,78.73-141.44,35.27-26.52,72.83-37.8,95.23-42.86h.03Z" fill="url(#linear-gradient-2)"/>
    <path id="Path_3" data-name="Path 3" d="M714.53,427.98c-22.67-51.51-74.66-85.51-127.03-84.74-52.13.78-91.43,35.84-101.55,45.62a141.338,141.338,0,0,0-26.04,34.83c-24.05,44.78-37.84,124.25,15.24,185.37,10.87,12.53,49.51,57.03,109.21,57.87,38.16.54,67.6-17.01,73.02-20.36,24.18-14.9,35.8-33.31,40.63-42.32l-27.3.54a78,78,0,0,1-14.61,16.62c-13.1,11.25-30.22,18.75-32.38,16.62-1.8-1.8,8.31-9.01,18.41-23.58a108.125,108.125,0,0,0,15.24-32.14q42.87-.54,85.71-1.07a144.479,144.479,0,0,1-21.59,41.25c-7.16,9.6-46.35,62.02-116.19,69.12C542.87,697.95,495.84,664,482.12,654.1c-88.26-63.7-70.92-171.08-69.21-180.56,3.98-22.06,25.34-116.65,116.83-146.27,50.77-16.44,96.82-4.33,104.77-2.15,83.03,22.93,108.27,96.08,110.47,102.87H714.51Z" fill="url(#linear-gradient-3)"/>
    <path id="Path_4" data-name="Path 4" d="M545.42,372.26a94.261,94.261,0,0,1,13.54-5.36,100.637,100.637,0,0,1,19.47-3.93,195.29,195.29,0,0,1,19.47,21.79,184.342,184.342,0,0,1,13.13,19.64q16.5-.18,33.02-.36a78.443,78.443,0,0,0-5.08-11.79,86.877,86.877,0,0,0-14.39-19.64,109.617,109.617,0,0,1,35.13,20.36,87.628,87.628,0,0,1,25.39,36.79q-18.825-.645-38.1-1.07-28.83-.645-56.73-.72a107.872,107.872,0,0,0-16.93-30,125.961,125.961,0,0,0-27.93-25.72h0Z" fill="url(#linear-gradient-4)"/>
    <path id="Path_5" data-name="Path 5" d="M546.27,636.93a129.66,129.66,0,0,0,28.78-28.57,112.539,112.539,0,0,0,14.82-27.87,68.557,68.557,0,0,0,31.32.72,131.929,131.929,0,0,1-12.7,28.21,149.887,149.887,0,0,1-29.63,35.36,43.328,43.328,0,0,1-20.74-1.43,37.768,37.768,0,0,1-11.85-6.42h.01Z" fill="url(#linear-gradient-5)"/>
    <path id="Path_6" data-name="Path 6" d="M578.84,480.25c-11.89,2.8-20.37,13.81-20.33,26.34.03,12.72,8.82,23.81,20.96,26.34.1-3.37.21-6.75.31-10.12a17.81,17.81,0,0,1-10.51-14.68,18.068,18.068,0,0,1,9.74-17.61c-.05-3.43-.1-6.85-.16-10.28Z" fill="url(#linear-gradient-6)"/>
    <path id="Path_7" data-name="Path 7" d="M583.65,480.41a22.6,22.6,0,0,1,13.5,5.46,24.249,24.249,0,0,1,7.76,13.49c-3.57.05-7.14.11-10.71.16a12.362,12.362,0,0,0-3.1-5.3,11.845,11.845,0,0,0-7.61-3.37Q583.565,485.63,583.65,480.41Z" fill="url(#linear-gradient-7)"/>
    <path id="Path_8" data-name="Path 8" d="M584.12,522.5c.05,3.27.1,6.53.16,9.8a20.183,20.183,0,0,0,14.44-5.78,21.306,21.306,0,0,0,5.9-12.21c-3.1-.05-6.21-.11-9.31-.16a11.617,11.617,0,0,1-3.26,5.46,11.215,11.215,0,0,1-7.92,2.89Z" fill="url(#linear-gradient-8)"/>
    <path id="Path_9" data-name="Path 9" d="M662.3,491.05a126.076,126.076,0,0,1,13.5-.32c6.94.21,10.46.36,13.19,2.09a15.872,15.872,0,0,1,2.17,24.9c-4.1,3.83-9.13,4.14-17.39,4.66a71.374,71.374,0,0,1-11.02-.16c-.1,3.91-.21,7.82-.31,11.73a59.307,59.307,0,0,0,13.97-.16c9.05-1.18,18.16-2.36,24.06-9.8,6.37-8.03,5.19-18.54,4.81-21.85a25.981,25.981,0,0,0-4.66-13.17,23.522,23.522,0,0,0-9.93-7.71c-1.15-.49-4.03-1.61-12.88-1.93a118.378,118.378,0,0,0-15.68.48q.075,5.625.16,11.24Z" fill="url(#linear-gradient-9)"/>
    <path id="Path_10" data-name="Path 10" d="M713.88,480.33q.075,5.22.16,10.44,18.09.075,36.17.16c.09-3.43.19-6.85.28-10.28q-18.3-.165-36.6-.32Z" fill="url(#linear-gradient-10)"/>
    <path id="Path_11" data-name="Path 11" d="M713.57,511.5q.075-5.22.16-10.44,17.76.4,35.52.8c-.09,3.43-.19,6.86-.28,10.29q-17.7-.315-35.39-.64Z" fill="url(#linear-gradient-11)"/>
    <path id="Path_12" data-name="Path 12" d="M713.42,521.62c-.1,3.27-.21,6.53-.31,9.8l37.57.96c-.05-3.53-.1-7.07-.16-10.6q-18.555-.075-37.1-.16Z" fill="url(#linear-gradient-12)"/>
    <path id="Path_13" data-name="Path 13" d="M629.82,480.09a26.947,26.947,0,0,0-21.11,24.1,27.252,27.252,0,0,0,21.89,28.43q-.075-4.425-.16-8.83A18.2,18.2,0,0,1,618.64,505a17.745,17.745,0,0,1,11.18-14.3V480.1Z" fill="url(#linear-gradient-13)"/>
    <path id="Path_14" data-name="Path 14" d="M634.48,480.41v10.44a16.363,16.363,0,0,1,12.88,14.78,16.539,16.539,0,0,1-12.88,17.19c.1,3.43.21,6.85.31,10.28,13.81-1.42,24.09-13.84,23.44-27.63a26.4,26.4,0,0,0-23.75-25.06Z" fill="url(#linear-gradient-13)"/>
  </g>
</svg>
