<svg xmlns="http://www.w3.org/2000/svg" width="944.059" height="313.482" viewBox="0 0 944.059 313.482">
  <path id="Path_2" data-name="Path 2" d="M233.573,74.313q-32.812,17.1-81.625,17.1-63.194,0-101.272-40.1T12.6-53.93q0-70.025,42.838-113.179T163.7-210.264q42.129,0,69.878,12.01v48.04Q204.2-167.72,168.759-167.72q-47.193,0-76.46,30.33T63.031-56.372q0,48.244,27.343,76.844t71.9,28.6q41.116,0,71.3-19.542Zm141.781,17.1q-48,0-76.663-29.211t-28.66-77.455q0-52.518,29.875-82.035T380.418-126.8q48.611,0,75.752,28.7T483.311-18.51q0,49.872-29.268,79.9T375.354,91.412Zm2.228-180.558q-27.546,0-43.547,19.338t-16,53.333q0,32.773,16.2,51.6t43.344,18.829q27.749,0,42.636-18.524t14.887-52.722q0-34.4-14.887-53.129T377.582-89.146ZM719.68,86.527H672.69V51.107h-.81q-22.685,40.3-69.878,40.3-38.281,0-61.27-27.99T517.743-12.811q0-51.7,25.419-82.849T610.914-126.8q41.927,0,60.966,33.791h.81V-222.07h46.99ZM673.3-8.739V-36.016q0-22.188-14.381-37.659t-36.66-15.471q-26.331,0-41.42,19.745t-15.09,54.758q0,31.755,14.482,50.178t38.99,18.422q24.1,0,39.091-17.811T673.3-8.739Zm283.36,3.868H815.281q.81,28.906,17.723,44.58t46.484,15.674q33.217,0,60.966-19.949V73.5Q912.1,91.412,865.512,91.412q-45.775,0-71.8-28.4t-26.027-79.9q0-48.651,28.66-79.287T867.537-126.8q42.534,0,65.827,27.481t23.293,76.335Zm-45.37-33.384q-.2-25.445-11.95-39.592T866.929-92q-20.254,0-34.331,14.86t-17.318,38.88Z" transform="translate(-12.598 222.07)"/>
</svg>
