<svg xmlns="http://www.w3.org/2000/svg" width="569.448" height="376.229" viewBox="0 0 569.448 376.229">
  <path id="text-01_1_" data-name="text-01 (1)" d="M378.56,698.72l-43.97-.99a27.913,27.913,0,0,1-13.27-6.84,31.964,31.964,0,0,1-7.75-14.26c-3.23-12.83-2.87-124.17.58-275.44a30.459,30.459,0,0,1,21.62-18.86q259.53-.075,519.06-.14a26.251,26.251,0,0,1,22.03,16.88q.345,140.025.69,280.05a27.376,27.376,0,0,1-10.26,14.3,26.614,26.614,0,0,1-10.79,4.41l-225.16.36H446.75c-3.98,8.2-18.16,34.72-49.79,48.77a99.88,99.88,0,0,1-47.26,8.21,68.106,68.106,0,0,0,28.88-56.46Z" transform="translate(-309.603 -380.69)" fill="none" stroke="#231f20" stroke-miterlimit="10" stroke-width="3"/>
</svg>
